<?xml version="1.0" encoding="utf-8"?>
<!-- Generator: Adobe Illustrator 21.1.0, SVG Export Plug-In . SVG Version: 6.00 Build 0)  -->
<svg version="1.1" id="Capa_1" xmlns="http://www.w3.org/2000/svg" xmlns:xlink="http://www.w3.org/1999/xlink" x="0px" y="0px"
	 viewBox="0 0 368 368" style="enable-background:new 0 0 368 368;" xml:space="preserve">
<path style="fill:#F0EEEE;" d="M312.8,44.9C276.6,22.4,230.9,10,184,10S91.4,22.4,55.2,44.9C20.1,66.7,0,94.5,0,121
	c0,26.2,19.8,50.4,55.9,68.1c34.3,16.9,79.8,26.2,128.1,26.2s93.8-9.3,128.1-26.2c36-17.7,55.9-41.9,55.9-68.1
	C368,94.5,347.9,66.7,312.8,44.9z"/>
<path style="fill:#D9D4D4;" d="M312.8,44.9C276.6,22.4,230.9,10,184,10c-4.4,0-8.9,0.1-13.3,0.3c42.2,2.1,82.7,14.2,115.5,34.6
	c35.1,21.8,55.2,49.6,55.2,76.1c0,26.2-19.8,50.4-55.9,68.1c-31.2,15.3-71.5,24.4-114.8,25.9c4.4,0.2,8.8,0.2,13.3,0.2
	c48.3,0,93.8-9.3,128.1-26.2c36-17.7,55.9-41.9,55.9-68.1C368,94.5,347.9,66.7,312.8,44.9z"/>
<path style="fill:#BF612C;" d="M43,145.9v112.4h282V145.9c0-16.1-13.1-29.2-29.2-29.2H72.2C56.1,116.7,43,129.8,43,145.9z"/>
<g>
	<path style="fill:#FA9E3E;" d="M53.8,234h49.4v56.6H53.8c-15.6,0-28.3-12.7-28.3-28.3S38.2,234,53.8,234z"/>
	<path style="fill:#FA9E3E;" d="M314.2,234h-49.4v56.6h49.4c15.6,0,28.3-12.7,28.3-28.3S329.8,234,314.2,234z"/>
</g>
<path style="fill:#FFB56B;" d="M184,352.8L184,352.8c-61.9,0-112.1-50.2-112.1-112.1V127.3h224.2v113.4
	C296.1,302.6,245.9,352.8,184,352.8z"/>
<path style="fill:#EF9245;" d="M272.8,127.3v125.1c0,53.6-41.9,97.4-94.8,100.3c2,0.1,4,0.2,6,0.2l0,0
	c61.9,0,112.1-50.2,112.1-112.1V127.3H272.8z"/>
<g>
	<path style="fill:#19303F;" d="M238.3,243c-4.1,0-7.5-3.4-7.5-7.5v-2c0-4.1,3.4-7.5,7.5-7.5s7.5,3.4,7.5,7.5v2
		C245.8,239.6,242.5,243,238.3,243z"/>
	<path style="fill:#19303F;" d="M129.7,243c-4.1,0-7.5-3.4-7.5-7.5v-2c0-4.1,3.4-7.5,7.5-7.5s7.5,3.4,7.5,7.5v2
		C137.2,239.6,133.8,243,129.7,243z"/>
</g>
<path style="fill:#FFD100;" d="M43,145.9v6.8h282v-6.8c0-16.1-13.1-29.2-29.2-29.2H72.2C56.1,116.7,43,129.8,43,145.9z"/>
<path style="fill:#3D5868;" d="M70.2,152.7c0,0.1,0,0.2,0,0.3c0,28,50.9,50.7,113.8,50.7c62.8,0,113.8-22.7,113.8-50.7
	c0-0.1,0-0.2,0-0.3H70.2z"/>
<g>
	<path style="fill:#FFD100;" d="M275.8,54.1c-1.2-2.6-3.9-4.3-6.8-4.3h-59.2c-1.6,0-3.1,0.5-4.4,1.4l-12,8.7
		c-1.8,1.3-2.9,3.3-3.1,5.5c-0.2,2.2,0.6,4.3,2.2,5.9l2.7,2.7l-0.6,0.6c-2.9,2.9-2.9,7.7,0,10.6l5.2,5.2c1.4,1.4,3.3,2.2,5.3,2.2
		h30.9c8.2,0,16-3.6,21.3-9.9l17.3-20.6C276.6,59.9,277,56.8,275.8,54.1z"/>
	<path style="fill:#FFD100;" d="M177.7,65.4c-0.2-2.2-1.3-4.2-3.1-5.5l-12-8.7c-1.3-0.9-2.8-1.4-4.4-1.4H99c-2.9,0-5.6,1.7-6.8,4.3
		c-1.2,2.6-0.8,5.8,1.1,8l17.3,20.6c5.3,6.3,13.1,9.9,21.3,9.9h30.9c2,0,3.9-0.8,5.3-2.2l5.2-5.2c2.9-2.9,2.9-7.7,0-10.6l-0.6-0.6
		l2.7-2.7C177,69.8,177.8,67.6,177.7,65.4z"/>
</g>
<path style="fill:#19303F;" d="M184,298.5c-13.5,0-26.1-6.6-33.8-17.7c-2.4-3.4-1.5-8.1,1.9-10.4c3.4-2.4,8.1-1.5,10.4,1.9
	c4.9,7.1,12.9,11.3,21.5,11.3c8.6,0,16.6-4.2,21.5-11.3c2.4-3.4,7-4.3,10.4-1.9c3.4,2.4,4.3,7,1.9,10.4
	C210.1,291.9,197.5,298.5,184,298.5z"/>
<path style="fill:#F2AD00;" d="M206.4,64L194,51.6c-2.7-2.7-6.2-4.2-10-4.2c-3.8,0-7.3,1.5-10,4.2L161.6,64c-2.7,2.7-4.2,6.2-4.2,10
	c0,3.8,1.5,7.4,4.2,10L174,96.5c2.8,2.7,6.4,4.1,10,4.1c3.6,0,7.3-1.4,10-4.1l12.4-12.4C212,78.6,212,69.6,206.4,64z"/>
</svg>
