<?xml version="1.0" encoding="iso-8859-1"?>
<!-- Generator: Adobe Illustrator 19.0.0, SVG Export Plug-In . SVG Version: 6.00 Build 0)  -->
<svg version="1.1" id="Capa_1" xmlns="http://www.w3.org/2000/svg" xmlns:xlink="http://www.w3.org/1999/xlink" x="0px" y="0px"
	 viewBox="0 0 512 512" style="enable-background:new 0 0 512 512;" xml:space="preserve">
<path style="fill:#F0EEEE;" d="M391.79,438.81v65.69c0,4.14-3.36,7.5-7.5,7.5H127.71c-4.14,0-7.5-3.36-7.5-7.5v-65.69
	c0-45.69,37.17-82.87,82.86-82.87h105.86C354.62,355.94,391.79,393.12,391.79,438.81z"/>
<path style="fill:#D9D4D4;" d="M308.93,355.94h-27.5c45.69,0,82.86,37.18,82.86,82.87v65.69c0,4.14-3.36,7.5-7.5,7.5h27.5
	c4.14,0,7.5-3.36,7.5-7.5v-65.69C391.79,393.12,354.62,355.94,308.93,355.94z"/>
<polygon style="fill:#FA9E3E;" points="298.1,363.08 298.1,267.73 213.9,267.73 213.9,363.08 256,387.67 "/>
<path style="fill:#F0EEEE;" d="M384.767,34.896C348.605,12.393,302.875,0,256,0s-92.606,12.393-128.767,34.896
	C92.132,56.739,72,84.463,72,110.96c0,26.184,19.848,50.359,55.887,68.072C162.233,195.913,207.731,205.21,256,205.21
	s93.767-9.297,128.112-26.178C420.152,161.319,440,137.144,440,110.96C440,84.463,419.868,56.739,384.767,34.896z"/>
<path style="fill:#D9D4D4;" d="M384.767,34.896C348.605,12.393,302.875,0,256,0c-4.445,0-8.878,0.112-13.295,0.333
	c42.166,2.109,82.739,14.193,115.472,34.563c35.101,21.843,55.233,49.567,55.233,76.064c0,26.184-19.848,50.359-55.888,68.072
	c-31.173,15.322-71.535,24.395-114.817,25.94c4.404,0.157,8.837,0.238,13.295,0.238c48.269,0,93.767-9.297,128.112-26.178
	C420.152,161.319,440,137.144,440,110.96C440,84.463,419.868,56.739,384.767,34.896z"/>
<path style="fill:#BF612C;" d="M115,135.888v112.407h282V135.888c0-16.114-13.063-29.178-29.178-29.178H144.178
	C128.063,106.71,115,119.773,115,135.888z"/>
<g>
	<path style="fill:#FA9E3E;" d="M125.839,223.99h49.369v56.61h-49.369c-15.632,0-28.305-12.673-28.305-28.305
		S110.207,223.99,125.839,223.99z"/>
	<path style="fill:#FA9E3E;" d="M386.161,223.99h-49.369v56.61h49.369c15.632,0,28.305-12.673,28.305-28.305
		S401.793,223.99,386.161,223.99z"/>
</g>
<path style="fill:#FFB56B;" d="M256,342.79L256,342.79c-61.919,0-112.115-50.195-112.115-112.115V117.281h224.229v113.394
	C368.115,292.595,317.919,342.79,256,342.79z"/>
<path style="fill:#EF9245;" d="M344.781,117.281v125.062c0,53.578-41.949,97.354-94.795,100.286
	c1.992,0.105,3.996,0.161,6.014,0.161l0,0c61.919,0,112.115-50.195,112.115-112.115V117.281H344.781z"/>
<g>
	<path style="fill:#19303F;" d="M310.324,232.962c-4.142,0-7.5-3.358-7.5-7.5v-2c0-4.142,3.358-7.5,7.5-7.5s7.5,3.358,7.5,7.5v2
		C317.824,229.605,314.466,232.962,310.324,232.962z"/>
	<path style="fill:#19303F;" d="M201.676,232.962c-4.142,0-7.5-3.358-7.5-7.5v-2c0-4.142,3.358-7.5,7.5-7.5s7.5,3.358,7.5,7.5v2
		C209.176,229.605,205.818,232.962,201.676,232.962z"/>
</g>
<path style="fill:#FFD100;" d="M115,135.888v6.822h282v-6.822c0-16.114-13.063-29.178-29.178-29.178H144.178
	C128.063,106.71,115,119.773,115,135.888z"/>
<g>
	<path style="fill:#3D5868;" d="M142.24,142.71c-0.002,0.111-0.01,0.222-0.01,0.333c0,27.982,50.936,50.667,113.77,50.667
		c62.833,0,113.77-22.684,113.77-50.667c0-0.111-0.008-0.222-0.009-0.333H142.24z"/>
	<path style="fill:#3D5868;" d="M285.7,512h-59.4l8.02-91.95c0.24-2.77,1.66-5.25,3.81-6.66s4.78-1.59,7.06-0.48
		c3.42,1.65,7.05,2.49,10.81,2.49s7.39-0.84,10.81-2.49c2.28-1.11,4.91-0.93,7.06,0.48s3.57,3.89,3.81,6.66L285.7,512z"/>
</g>
<path style="fill:#304A56;" d="M285.12,407.287l-23.816-23.816c-2.929-2.929-7.678-2.929-10.606,0l-23.816,23.816
	c-1.407,1.406-2.197,3.314-2.197,5.303s0.791,3.897,2.197,5.304c7.781,7.78,18.122,12.065,29.12,12.065
	c10.998,0,21.338-4.285,29.12-12.065c1.406-1.407,2.197-3.314,2.197-5.304C287.316,410.601,286.526,408.693,285.12,407.287z"/>
<g>
	<path style="fill:#FFD100;" d="M347.8,44.143c-1.231-2.644-3.883-4.335-6.8-4.335h-59.153c-1.579,0-3.118,0.499-4.397,1.424
		l-12.028,8.705c-1.779,1.288-2.905,3.291-3.08,5.48c-0.174,2.19,0.62,4.346,2.173,5.899l2.74,2.74l-0.572,0.572
		c-2.929,2.929-2.929,7.678,0,10.606l5.191,5.191c1.406,1.407,3.314,2.197,5.303,2.197h30.927c8.239,0,16.014-3.618,21.335-9.93
		l17.298-20.555C348.616,49.905,349.03,46.787,347.8,44.143z"/>
	<path style="fill:#FFD100;" d="M249.658,55.417c-0.174-2.189-1.3-4.192-3.079-5.48l-12.028-8.705
		c-1.279-0.926-2.818-1.424-4.397-1.424H171c-2.917,0-5.569,1.691-6.8,4.335c-1.23,2.645-0.816,5.763,1.062,7.994l17.302,20.56
		c5.317,6.308,13.092,9.925,21.331,9.925h30.927c1.989,0,3.897-0.79,5.303-2.197l5.191-5.191c2.929-2.928,2.929-7.676,0.001-10.605
		l-0.573-0.573l2.74-2.741C249.038,59.762,249.833,57.606,249.658,55.417z"/>
</g>
<g>
	<path style="fill:#19303F;" d="M348.5,469.594h-35c-4.142,0-7.5-3.358-7.5-7.5s3.358-7.5,7.5-7.5h35c4.142,0,7.5,3.358,7.5,7.5
		S352.642,469.594,348.5,469.594z"/>
	<path style="fill:#19303F;" d="M256,288.484c-13.494,0-26.142-6.631-33.833-17.739c-2.358-3.405-1.509-8.078,1.896-10.435
		c3.405-2.358,8.078-1.509,10.436,1.896c4.89,7.062,12.928,11.278,21.501,11.278c8.573,0,16.61-4.216,21.5-11.278
		c2.358-3.406,7.029-4.254,10.436-1.896c3.405,2.358,4.254,7.03,1.896,10.435C282.142,281.853,269.494,288.484,256,288.484z"/>
</g>
<path style="fill:#F2AD00;" d="M278.435,54.022l-12.406-12.406c-2.68-2.681-6.241-4.157-10.028-4.157
	c-3.787,0-7.348,1.476-10.028,4.156l-12.406,12.406c-2.681,2.68-4.157,6.244-4.157,10.034c0,3.79,1.476,7.354,4.155,10.032
	l12.418,12.418c2.76,2.749,6.386,4.124,10.013,4.124c3.631,0,7.263-1.378,10.032-4.135l12.407-12.406
	C283.967,68.557,283.967,59.554,278.435,54.022z"/>
<g>
	<path style="fill:#D9D4D4;" d="M328.539,359.391l-14.585-13.833c-2.607-2.473-6.602-2.749-9.525-0.658l-52.793,37.774
		c-1.792,1.282-2.93,3.288-3.11,5.484c-0.181,2.196,0.613,4.361,2.171,5.919l39.314,39.315c1.419,1.419,3.333,2.197,5.303,2.197
		c0.456,0,0.915-0.042,1.371-0.126c2.43-0.452,4.482-2.072,5.484-4.332l28.064-63.255
		C331.521,364.973,330.842,361.576,328.539,359.391z"/>
	<path style="fill:#D9D4D4;" d="M263.475,388.158c-0.181-2.196-1.318-4.202-3.11-5.484L207.571,344.9
		c-2.923-2.092-6.919-1.815-9.525,0.658l-14.585,13.833c-2.303,2.185-2.981,5.582-1.694,8.483l28.064,63.255
		c1.002,2.26,3.054,3.88,5.484,4.332c0.457,0.085,0.915,0.126,1.372,0.126c1.971,0,3.884-0.777,5.303-2.197l39.314-39.315
		C262.861,392.519,263.656,390.354,263.475,388.158z"/>
</g>
<g>
</g>
<g>
</g>
<g>
</g>
<g>
</g>
<g>
</g>
<g>
</g>
<g>
</g>
<g>
</g>
<g>
</g>
<g>
</g>
<g>
</g>
<g>
</g>
<g>
</g>
<g>
</g>
<g>
</g>
</svg>
